<svg width="50" height="20" viewBox="0 0 80 28" fill="none" xmlns="http://www.w3.org/2000/svg">
<path fill-rule="evenodd" clip-rule="evenodd" d="M52.8789 1.5H27.9021V26.5H52.8789V1.5ZM52.8789 0H54.3789H71.1301C75.5484 0 79.1301 3.58172 79.1301 8V20C79.1301 24.4183 75.5484 28 71.1301 28H54.3789H52.8789H27.9021H26.4021H8.66797C4.24969 28 0.667969 24.4183 0.667969 20V8C0.667969 3.58172 4.24969 0 8.66797 0H26.4021H27.9021H52.8789ZM54.3789 26.5H71.1301C74.72 26.5 77.6301 23.5899 77.6301 20V8C77.6301 4.41015 74.72 1.5 71.1301 1.5H54.3789V26.5ZM8.66797 26.5H26.4021V1.5H8.66797C5.07812 1.5 2.16797 4.41015 2.16797 8V20C2.16797 23.5898 5.07812 26.5 8.66797 26.5Z" fill="#FFA58D"/>
</svg>
