<svg width="24" height="24" viewBox="0 0 24 24" fill="none" xmlns="http://www.w3.org/2000/svg">
<path fill-rule="evenodd" clip-rule="evenodd" d="M15 4C15 3.44772 15.4477 3 16 3H20C20.5523 3 21 3.44772 21 4V8C21 8.55228 20.5523 9 20 9C19.4477 9 19 8.55228 19 8V6.41421L4.70711 20.7071C4.31658 21.0976 3.68342 21.0976 3.29289 20.7071C2.90237 20.3166 2.90237 19.6834 3.29289 19.2929L17.5858 5H16C15.4477 5 15 4.55228 15 4Z" fill="#8D99FF"/>
<path fill-rule="evenodd" clip-rule="evenodd" d="M5.41784 5.43338C5.17976 5.7905 5 6.34146 5 7C5 7.65854 5.17976 8.2095 5.41784 8.56662C5.66058 8.93073 5.8861 9 6 9C6.1139 9 6.33942 8.93073 6.58216 8.56662C6.82024 8.2095 7 7.65854 7 7C7 6.34146 6.82024 5.7905 6.58216 5.43338C6.33942 5.06927 6.1139 5 6 5C5.8861 5 5.66058 5.06927 5.41784 5.43338ZM3.75374 4.32398C4.23485 3.6023 5.00933 3 6 3C6.99067 3 7.76515 3.6023 8.24626 4.32398C8.73204 5.05265 9 6.00168 9 7C9 7.99832 8.73204 8.94735 8.24626 9.67602C7.76515 10.3977 6.99067 11 6 11C5.00933 11 4.23485 10.3977 3.75374 9.67602C3.26796 8.94735 3 7.99832 3 7C3 6.00168 3.26796 5.05265 3.75374 4.32398Z" fill="#8D99FF"/>
<path fill-rule="evenodd" clip-rule="evenodd" d="M17.4178 15.4334C17.1798 15.7905 17 16.3415 17 17C17 17.6585 17.1798 18.2095 17.4178 18.5666C17.6606 18.9307 17.8861 19 18 19C18.1139 19 18.3394 18.9307 18.5822 18.5666C18.8202 18.2095 19 17.6585 19 17C19 16.3415 18.8202 15.7905 18.5822 15.4334C18.3394 15.0693 18.1139 15 18 15C17.8861 15 17.6606 15.0693 17.4178 15.4334ZM15.7537 14.324C16.2349 13.6023 17.0093 13 18 13C18.9907 13 19.7651 13.6023 20.2463 14.324C20.732 15.0526 21 16.0017 21 17C21 17.9983 20.732 18.9474 20.2463 19.676C19.7651 20.3977 18.9907 21 18 21C17.0093 21 16.2349 20.3977 15.7537 19.676C15.268 18.9474 15 17.9983 15 17C15 16.0017 15.268 15.0526 15.7537 14.324Z" fill="#8D99FF"/>
</svg>
