<svg width="24" height="24" viewBox="0 0 24 24" fill="none" xmlns="http://www.w3.org/2000/svg">
<path fill-rule="evenodd" clip-rule="evenodd" d="M8 2C8.55228 2 9 2.44772 9 3V4H15V3C15 2.44772 15.4477 2 16 2C16.5523 2 17 2.44772 17 3V4H19C20.6569 4 22 5.34315 22 7V12.5C22 13.0523 21.5523 13.5 21 13.5C20.4477 13.5 20 13.0523 20 12.5V7C20 6.44772 19.5523 6 19 6H17V7C17 7.55228 16.5523 8 16 8C15.4477 8 15 7.55228 15 7V6H9V7C9 7.55228 8.55228 8 8 8C7.44772 8 7 7.55228 7 7V6H5C4.44772 6 4 6.44772 4 7V19C4 19.5523 4.44772 20 5 20H12C12.5523 20 13 20.4477 13 21C13 21.5523 12.5523 22 12 22H5C3.34315 22 2 20.6569 2 19V7C2 5.34315 3.34315 4 5 4H7V3C7 2.44772 7.44772 2 8 2ZM6 11C6 10.4477 6.44772 10 7 10H17C17.5523 10 18 10.4477 18 11C18 11.5523 17.5523 12 17 12H7C6.44772 12 6 11.5523 6 11Z" fill="#FF6B00"/>
<path fill-rule="evenodd" clip-rule="evenodd" d="M24 19C24 21.7614 21.7614 24 19 24C16.2386 24 14 21.7614 14 19C14 16.2386 16.2386 14 19 14C21.7614 14 24 16.2386 24 19ZM19 15C19.5523 15 20 15.4477 20 16V19C20 19.5523 19.5523 20 19 20C18.4477 20 18 19.5523 18 19V16C18 15.4477 18.4477 15 19 15ZM20 21.5C20 20.9477 19.5523 20.5 19 20.5C18.4477 20.5 18 20.9477 18 21.5V21.9992C18 22.5515 18.4477 23 19 23C19.5523 23 20 22.5523 20 22V21.5Z" fill="#FF6B00"/>
</svg>
