<svg width="12" height="14" viewBox="0 0 12 14" fill="none" xmlns="http://www.w3.org/2000/svg">
<path fill-rule="evenodd" clip-rule="evenodd" d="M0 5.66683C0 5.29864 0.298477 5.00016 0.666667 5.00016H11.3333C11.7015 5.00016 12 5.29864 12 5.66683C12 6.03502 11.7015 6.3335 11.3333 6.3335H0.666667C0.298477 6.3335 0 6.03502 0 5.66683ZM0 8.3335C0 7.96531 0.298477 7.66683 0.666667 7.66683H11.3333C11.7015 7.66683 12 7.96531 12 8.3335C12 8.70169 11.7015 9.00016 11.3333 9.00016H0.666667C0.298477 9.00016 0 8.70169 0 8.3335Z" fill="#212B36"/>
<path fill-rule="evenodd" clip-rule="evenodd" d="M5.5286 0.528758C5.78895 0.268409 6.21106 0.268409 6.47141 0.528758L8.47141 2.52876C8.73175 2.78911 8.73175 3.21122 8.47141 3.47157C8.21106 3.73192 7.78895 3.73192 7.5286 3.47157L6 1.94297L4.4714 3.47157C4.21105 3.73192 3.78895 3.73192 3.5286 3.47157C3.26825 3.21122 3.26825 2.78911 3.5286 2.52876L5.5286 0.528758Z" fill="#212B36"/>
<path fill-rule="evenodd" clip-rule="evenodd" d="M5.5286 13.4716C5.78895 13.7319 6.21106 13.7319 6.47141 13.4716L8.47141 11.4716C8.73175 11.2112 8.73175 10.7891 8.47141 10.5288C8.21106 10.2684 7.78895 10.2684 7.5286 10.5288L6 12.0574L4.4714 10.5288C4.21105 10.2684 3.78895 10.2684 3.5286 10.5288C3.26825 10.7891 3.26825 11.2112 3.5286 11.4716L5.5286 13.4716Z" fill="#212B36"/>
</svg>
