<svg width="20" height="20" viewBox="0 0 20 20" fill="none" xmlns="http://www.w3.org/2000/svg">
<path fill-rule="evenodd" clip-rule="evenodd" d="M12.5 3.33333C12.5 2.8731 12.8731 2.5 13.3333 2.5H16.6667C17.1269 2.5 17.5 2.8731 17.5 3.33333V6.66667C17.5 7.1269 17.1269 7.5 16.6667 7.5C16.2064 7.5 15.8333 7.1269 15.8333 6.66667V5.34518L3.92259 17.2559C3.59715 17.5814 3.06951 17.5814 2.74408 17.2559C2.41864 16.9305 2.41864 16.4028 2.74408 16.0774L14.6548 4.16667H13.3333C12.8731 4.16667 12.5 3.79357 12.5 3.33333Z" fill="#7FBCFE"/>
<path fill-rule="evenodd" clip-rule="evenodd" d="M4.51486 4.52782C4.31646 4.82542 4.16667 5.28455 4.16667 5.83333C4.16667 6.38212 4.31646 6.84125 4.51486 7.13885C4.71715 7.44227 4.90508 7.5 5 7.5C5.09492 7.5 5.28285 7.44227 5.48514 7.13885C5.68354 6.84125 5.83333 6.38212 5.83333 5.83333C5.83333 5.28455 5.68354 4.82542 5.48514 4.52782C5.28285 4.22439 5.09492 4.16667 5 4.16667C4.90508 4.16667 4.71715 4.22439 4.51486 4.52782ZM3.12811 3.60332C3.52904 3.00192 4.17444 2.5 5 2.5C5.82556 2.5 6.47095 3.00192 6.87189 3.60332C7.2767 4.21054 7.5 5.0014 7.5 5.83333C7.5 6.66526 7.2767 7.45613 6.87189 8.06335C6.47095 8.66475 5.82556 9.16667 5 9.16667C4.17444 9.16667 3.52904 8.66475 3.12811 8.06335C2.7233 7.45613 2.5 6.66526 2.5 5.83333C2.5 5.0014 2.7233 4.21054 3.12811 3.60332Z" fill="#7FBCFE"/>
<path fill-rule="evenodd" clip-rule="evenodd" d="M14.5149 12.8611C14.3165 13.1587 14.1667 13.6179 14.1667 14.1667C14.1667 14.7154 14.3165 15.1746 14.5149 15.4722C14.7171 15.7756 14.9051 15.8333 15 15.8333C15.0949 15.8333 15.2829 15.7756 15.4851 15.4722C15.6835 15.1746 15.8333 14.7154 15.8333 14.1667C15.8333 13.6179 15.6835 13.1587 15.4851 12.8611C15.2829 12.5577 15.0949 12.5 15 12.5C14.9051 12.5 14.7171 12.5577 14.5149 12.8611ZM13.1281 11.9366C13.529 11.3353 14.1744 10.8333 15 10.8333C15.8256 10.8333 16.471 11.3353 16.8719 11.9366C17.2767 12.5439 17.5 13.3347 17.5 14.1667C17.5 14.9986 17.2767 15.7895 16.8719 16.3967C16.471 16.9981 15.8256 17.5 15 17.5C14.1744 17.5 13.529 16.9981 13.1281 16.3967C12.7233 15.7895 12.5 14.9986 12.5 14.1667C12.5 13.3347 12.7233 12.5439 13.1281 11.9366Z" fill="#7FBCFE"/>
</svg>
