<svg width="16" height="16" viewBox="0 0 16 16" fill="none" xmlns="http://www.w3.org/2000/svg">
<path fill-rule="evenodd" clip-rule="evenodd" d="M14 5.24916V9.18502C14 10.1669 13.1941 10.9628 12.2 10.9628H10.6485L8.42426 13.1596C8.18995 13.391 7.81005 13.391 7.57574 13.1596L5.35147 10.9628H3.8C2.80589 10.9628 2 10.1669 2 9.18502V4.44428C2 3.46244 2.80589 2.6665 3.8 2.6665H10.6667C10.6667 3.09223 10.7664 3.49466 10.9439 3.85169H3.8C3.46863 3.85169 3.2 4.117 3.2 4.44428V9.18502C3.2 9.5123 3.46863 9.77761 3.8 9.77761H5.6C5.75913 9.77761 5.91174 9.84005 6.02426 9.95118L8 11.9025L9.97574 9.95118C10.0883 9.84005 10.2409 9.77761 10.4 9.77761H12.2C12.5314 9.77761 12.8 9.5123 12.8 9.18502V5.27983C12.9723 5.31481 13.1507 5.33317 13.3333 5.33317C13.5635 5.33317 13.7869 5.304 14 5.24916ZM5 5.03687C4.66863 5.03687 4.4 5.30219 4.4 5.62947C4.4 5.95675 4.66863 6.22206 5 6.22206H11C11.3314 6.22206 11.6 5.95675 11.6 5.62947C11.6 5.30219 11.3314 5.03687 11 5.03687H5ZM5 7.40724C4.66863 7.40724 4.4 7.67256 4.4 7.99984C4.4 8.32712 4.66863 8.59243 5 8.59243H7.4C7.73137 8.59243 8 8.32712 8 7.99984C8 7.67256 7.73137 7.40724 7.4 7.40724H5Z" fill="#8D99FF"/>
<ellipse cx="13.334" cy="2.6665" rx="2" ry="2" fill="#DA4C57"/>
</svg>
