<svg width="20" height="20" viewBox="0 0 20 20" fill="none" xmlns="http://www.w3.org/2000/svg">
<rect width="20" height="20" rx="10" fill="#FE9F00"/>
<path fill-rule="evenodd" clip-rule="evenodd" d="M10.0009 5.21875L12.5809 8.31477L15.1814 6.36435L13.9298 14.4998H6.07192L4.82031 6.36435L7.42086 8.31477L10.0009 5.21875ZM10.0009 6.7808L7.58089 9.68478L6.18144 8.6352L6.92983 13.4998H13.0719L13.8203 8.6352L12.4209 9.68478L10.0009 6.7808Z" fill="white"/>
<path fill-rule="evenodd" clip-rule="evenodd" d="M10.0009 10.4998C9.72473 10.4998 9.50088 10.7236 9.50088 10.9998C9.50088 11.2759 9.72473 11.4998 10.0009 11.4998C10.277 11.4998 10.5009 11.2759 10.5009 10.9998C10.5009 10.7236 10.277 10.4998 10.0009 10.4998ZM8.50088 10.9998C8.50088 10.1713 9.17245 9.49977 10.0009 9.49977C10.8293 9.49977 11.5009 10.1713 11.5009 10.9998C11.5009 11.8282 10.8293 12.4998 10.0009 12.4998C9.17245 12.4998 8.50088 11.8282 8.50088 10.9998Z" fill="white"/>
</svg>
