<svg width="20" height="20" viewBox="0 0 20 20" fill="none" xmlns="http://www.w3.org/2000/svg">
<path fill-rule="evenodd" clip-rule="evenodd" d="M0.832031 10.8333C0.832031 10.373 1.20513 9.99992 1.66536 9.99992H7.4987C7.59862 9.99992 7.69774 10.0179 7.7913 10.053C8.90717 10.4714 11.3633 11.3819 12.3456 11.7093C13.1945 11.9923 13.6374 12.7264 13.8616 13.3201C13.9686 13.6033 14.0417 13.894 14.0893 14.1666H15.832C16.7703 14.1666 17.4371 14.5762 17.8416 15.138C18.2155 15.6573 18.332 16.2555 18.332 16.6666C18.332 17.0188 18.1106 17.3329 17.779 17.4514L11.9456 19.5347C11.7907 19.59 11.6229 19.5983 11.4633 19.5584L5.83203 18.1506V18.3333C5.83203 18.7935 5.45893 19.1666 4.9987 19.1666H1.66536C1.20513 19.1666 0.832031 18.7935 0.832031 18.3333V10.8333ZM5.83203 16.4326L11.6227 17.8803L16.5059 16.1363C16.5005 16.128 16.4949 16.1199 16.4891 16.1118C16.3936 15.9792 16.2271 15.8333 15.832 15.8333H10.832C10.726 15.8333 10.621 15.813 10.5225 15.7736L8.43921 14.9403C8.01189 14.7694 7.80404 14.2844 7.97497 13.8571C8.1459 13.4298 8.63087 13.2219 9.05819 13.3929L10.9925 14.1666H12.3846C12.3614 14.0796 12.3342 13.9929 12.3024 13.9089C12.1516 13.5095 11.9695 13.3408 11.8185 13.2905C10.8421 12.965 8.51238 12.1025 7.34772 11.6666H5.83203V16.4326ZM4.16536 11.6666H2.4987V17.4999H4.16536V11.6666Z" fill="#FFA58D"/>
<path fill-rule="evenodd" clip-rule="evenodd" d="M14.1654 2.49992C12.3244 2.49992 10.832 3.9923 10.832 5.83325C10.832 7.6742 12.3244 9.16658 14.1654 9.16658C16.0063 9.16658 17.4987 7.6742 17.4987 5.83325C17.4987 3.9923 16.0063 2.49992 14.1654 2.49992ZM9.16536 5.83325C9.16536 3.07183 11.4039 0.833252 14.1654 0.833252C16.9268 0.833252 19.1654 3.07183 19.1654 5.83325C19.1654 8.59468 16.9268 10.8333 14.1654 10.8333C11.4039 10.8333 9.16536 8.59468 9.16536 5.83325Z" fill="#FFA58D"/>
</svg>
