<svg width="20" height="20" viewBox="0 0 20 20" fill="none" xmlns="http://www.w3.org/2000/svg">
<rect width="20" height="20" rx="10" fill="#8D99FF"/>
<path d="M10.5 7H9.5V7.5C9.5 7.63261 9.55268 7.75979 9.64645 7.85355C9.74021 7.94732 9.86739 8 10 8C10.1326 8 10.2598 7.94732 10.3536 7.85355C10.4473 7.75979 10.5 7.63261 10.5 7.5V7Z" fill="white"/>
<path fill-rule="evenodd" clip-rule="evenodd" d="M7 5V6H7.5V7.5C7.5 8.16304 7.76339 8.79893 8.23223 9.26777C8.70107 9.73661 9.33696 10 10 10C9.33696 10 8.70107 10.2634 8.23223 10.7322C7.76339 11.2011 7.5 11.837 7.5 12.5V14H7V15H13V14H12.5V12.5C12.5 11.837 12.2366 11.2011 11.7678 10.7322C11.2989 10.2634 10.663 10 10 10C10.3283 10 10.6534 9.93534 10.9567 9.8097C11.26 9.68406 11.5356 9.49991 11.7678 9.26777C11.9999 9.03562 12.1841 8.76002 12.3097 8.45671C12.4353 8.15339 12.5 7.8283 12.5 7.5V6H13V5H7ZM8.5 6H11.5V7.5C11.5 7.89782 11.342 8.27936 11.0607 8.56066C10.7794 8.84196 10.3978 9 10 9C9.60218 9 9.22064 8.84196 8.93934 8.56066C8.65804 8.27936 8.5 7.89782 8.5 7.5V6ZM8.5 12.5V14H11.5V12.5C11.5 12.1022 11.342 11.7206 11.0607 11.4393C10.7794 11.158 10.3978 11 10 11C9.60218 11 9.22064 11.158 8.93934 11.4393C8.65804 11.7206 8.5 12.1022 8.5 12.5Z" fill="white"/>
</svg>
