<svg width="20" height="20" viewBox="0 0 20 20" fill="none" xmlns="http://www.w3.org/2000/svg">
<path fill-rule="evenodd" clip-rule="evenodd" d="M10.0013 1.66675C10.4615 1.66675 10.8346 2.03984 10.8346 2.50008V5.00008C10.8346 5.46032 10.4615 5.83342 10.0013 5.83342C9.54106 5.83342 9.16797 5.46032 9.16797 5.00008V2.50008C9.16797 2.03984 9.54106 1.66675 10.0013 1.66675Z" fill="#8D99FF"/>
<path opacity="0.88" fill-rule="evenodd" clip-rule="evenodd" d="M4.10879 4.10752C4.43422 3.78208 4.96186 3.78208 5.2873 4.10752L7.05506 5.87529C7.3805 6.20073 7.3805 6.72836 7.05506 7.0538C6.72963 7.37924 6.20199 7.37924 5.87655 7.0538L4.10879 5.28603C3.78335 4.9606 3.78335 4.43296 4.10879 4.10752Z" fill="#8D99FF"/>
<path opacity="0.28" fill-rule="evenodd" clip-rule="evenodd" d="M18.332 10.0001C18.332 10.4603 17.9589 10.8334 17.4987 10.8334L14.9987 10.8334C14.5385 10.8334 14.1654 10.4603 14.1654 10.0001C14.1654 9.53984 14.5385 9.16675 14.9987 9.16675L17.4987 9.16675C17.9589 9.16675 18.332 9.53984 18.332 10.0001Z" fill="#8D99FF"/>
<path opacity="0.16" fill-rule="evenodd" clip-rule="evenodd" d="M15.8939 4.10732C16.2194 4.43276 16.2194 4.9604 15.8939 5.28583L14.1262 7.0536C13.8007 7.37904 13.2731 7.37904 12.9477 7.0536C12.6222 6.72816 12.6222 6.20053 12.9477 5.87509L14.7154 4.10732C15.0409 3.78189 15.5685 3.78189 15.8939 4.10732Z" fill="#8D99FF"/>
<path opacity="0.76" fill-rule="evenodd" clip-rule="evenodd" d="M5.83203 10.0001C5.83203 10.4603 5.45894 10.8334 4.9987 10.8334L2.4987 10.8334C2.03846 10.8334 1.66536 10.4603 1.66536 10.0001C1.66536 9.53984 2.03846 9.16675 2.4987 9.16675L4.9987 9.16675C5.45894 9.16675 5.83203 9.53984 5.83203 10.0001Z" fill="#8D99FF"/>
<path opacity="0.64" fill-rule="evenodd" clip-rule="evenodd" d="M7.0541 12.9464C7.37954 13.2719 7.37954 13.7995 7.0541 14.1249L5.28633 15.8927C4.9609 16.2181 4.43326 16.2181 4.10782 15.8927C3.78238 15.5673 3.78238 15.0396 4.10782 14.7142L5.87559 12.9464C6.20103 12.621 6.72866 12.621 7.0541 12.9464Z" fill="#8D99FF"/>
<path opacity="0.52" fill-rule="evenodd" clip-rule="evenodd" d="M10.0013 14.1667C10.4615 14.1667 10.8346 14.5398 10.8346 15.0001V17.5001C10.8346 17.9603 10.4615 18.3334 10.0013 18.3334C9.54106 18.3334 9.16797 17.9603 9.16797 17.5001V15.0001C9.16797 14.5398 9.54106 14.1667 10.0013 14.1667Z" fill="#8D99FF"/>
<path opacity="0.4" fill-rule="evenodd" clip-rule="evenodd" d="M12.9447 12.9464C13.2702 12.621 13.7978 12.621 14.1232 12.9464L15.891 14.7142C16.2164 15.0396 16.2164 15.5672 15.891 15.8927C15.5656 16.2181 15.0379 16.2181 14.7125 15.8927L12.9447 14.1249C12.6193 13.7995 12.6193 13.2718 12.9447 12.9464Z" fill="#8D99FF"/>
</svg>
