<svg width="20" height="20" viewBox="0 0 20 20" fill="none" xmlns="http://www.w3.org/2000/svg">
<path fill-rule="evenodd" clip-rule="evenodd" d="M10.0013 3.33341C6.3194 3.33341 3.33464 6.31818 3.33464 10.0001C3.33464 13.682 6.3194 16.6667 10.0013 16.6667C13.6832 16.6667 16.668 13.682 16.668 10.0001C16.668 6.31818 13.6832 3.33341 10.0013 3.33341ZM1.66797 10.0001C1.66797 5.39771 5.39893 1.66675 10.0013 1.66675C14.6037 1.66675 18.3346 5.39771 18.3346 10.0001C18.3346 14.6025 14.6037 18.3334 10.0013 18.3334C5.39893 18.3334 1.66797 14.6025 1.66797 10.0001ZM13.0906 7.74416C13.416 8.0696 13.416 8.59723 13.0906 8.92267L9.75723 12.256C9.43179 12.5814 8.90415 12.5814 8.57871 12.256L6.91205 10.5893C6.58661 10.2639 6.58661 9.73626 6.91205 9.41083C7.23748 9.08539 7.76512 9.08539 8.09056 9.41083L9.16797 10.4882L11.912 7.74416C12.2375 7.41872 12.7651 7.41872 13.0906 7.74416Z" fill="#98D2C3"/>
</svg>
