<svg width="20" height="20" viewBox="0 0 20 20" fill="none" xmlns="http://www.w3.org/2000/svg">
<path fill-rule="evenodd" clip-rule="evenodd" d="M11.6667 6.66667C11.2064 6.66667 10.8333 6.29357 10.8333 5.83333C10.8333 5.3731 11.2064 5 11.6667 5H18.3333C18.7936 5 19.1667 5.3731 19.1667 5.83333V12.5C19.1667 12.9602 18.7936 13.3333 18.3333 13.3333C17.8731 13.3333 17.5 12.9602 17.5 12.5V7.84518L12.2559 13.0893C11.9305 13.4147 11.4028 13.4147 11.0774 13.0893L8.33333 10.3452L3.92259 14.7559C3.59715 15.0814 3.06951 15.0814 2.74408 14.7559C2.41864 14.4305 2.41864 13.9028 2.74408 13.5774L7.74408 8.57741C8.06951 8.25197 8.59715 8.25197 8.92259 8.57741L11.6667 11.3215L16.3215 6.66667H11.6667Z" fill="#C9AB81"/>
</svg>
