<svg width="20" height="20" viewBox="0 0 20 20" fill="none" xmlns="http://www.w3.org/2000/svg">
<g clip-path="url(#clip0_5150_22839)">
<path fill-rule="evenodd" clip-rule="evenodd" d="M14.9652 2.80743C14.5627 2.36013 13.8667 2.3131 13.3406 2.83922L12.4298 3.74996L13.5072 4.82737C13.8327 5.15281 13.8327 5.68045 13.5072 6.00588C13.1818 6.33132 12.6542 6.33132 12.3287 6.00588L11.2513 4.92847L9.92982 6.24996L11.0072 7.32737C11.3327 7.65281 11.3327 8.18045 11.0072 8.50588C10.6818 8.83132 10.1542 8.83132 9.82872 8.50588L8.75131 7.42847L7.42982 8.74996L8.50723 9.82737C8.83267 10.1528 8.83267 10.6804 8.50723 11.0059C8.1818 11.3313 7.65416 11.3313 7.32872 11.0059L6.25131 9.92847L4.92982 11.25L6.00723 12.3274C6.33267 12.6528 6.33267 13.1804 6.00723 13.5059C5.6818 13.8313 5.15416 13.8313 4.82872 13.5059L3.75131 12.4285L2.84057 13.3392C2.83024 13.3495 2.81964 13.3596 2.80878 13.3694C2.36148 13.7719 2.31445 14.4679 2.84057 14.994L5.00723 17.1607C5.01756 17.171 5.02762 17.1816 5.03739 17.1925C5.43996 17.6398 6.13594 17.6868 6.66206 17.1607L17.1621 6.66071L17.7513 7.24996L17.1938 6.63055C17.6411 6.22798 17.6882 5.532 17.1621 5.00588L14.9954 2.83922C14.9851 2.82889 14.975 2.81829 14.9652 2.80743ZM18.3264 7.85342L7.84057 18.3392C6.70552 19.4743 4.91341 19.5263 3.81452 18.325L1.66206 16.1726C0.52701 15.0375 0.474955 13.2454 1.67626 12.1465L3.16168 10.6611V10.6611L3.16244 10.6603L10.6617 3.16109V3.16109L10.6624 3.16033L12.1621 1.66071C13.2971 0.525662 15.0892 0.473604 16.1881 1.6749L18.3406 3.82737C19.4756 4.96242 19.5277 6.75453 18.3264 7.85342Z" fill="#FF6B00"/>
<path fill-rule="evenodd" clip-rule="evenodd" d="M2.86423 2.86612C3.35239 2.37796 4.14384 2.37796 4.632 2.86612L5.29275 3.52686L3.52498 5.29463L2.86423 4.63389C2.37608 4.14573 2.37608 3.35427 2.86423 2.86612ZM4.70349 6.47314L6.47126 4.70537L8.3314 6.56552L6.59325 8.3629L4.70349 6.47314ZM5.81051 1.68761C4.67148 0.548579 2.82475 0.548579 1.68572 1.68761C0.546693 2.82664 0.546693 4.67337 1.68572 5.8124L5.65882 9.78549L9.75391 5.63109L5.81051 1.68761Z" fill="#FF6B00"/>
<path fill-rule="evenodd" clip-rule="evenodd" d="M11.2008 12.9671L12.9686 11.1994L17.5013 15.7322V17.5296H15.7631L11.2008 12.9671ZM14.1471 10.0209L11.2008 12.9671L10.0223 14.1457L14.8287 18.9521C14.985 19.1084 15.197 19.1962 15.418 19.1962H18.3346C18.7949 19.1962 19.168 18.8231 19.168 18.3629V15.387C19.168 15.166 19.0802 14.954 18.9239 14.7978L14.1471 10.0209Z" fill="#FF6B00"/>
</g>
<defs>
<clipPath id="clip0_5150_22839">
<rect width="20" height="20" fill="white"/>
</clipPath>
</defs>
</svg>
